<svg width="85" height="38" viewBox="0 0 85 38" fill="none" xmlns="http://www.w3.org/2000/svg">
<path d="M7.74 20C6.796 20 5.964 19.792 5.244 19.376C4.54 18.944 3.988 18.368 3.588 17.648C3.204 16.928 3.012 16.128 3.012 15.248V3.2H5.892V15.608C5.892 16.12 6.06 16.56 6.396 16.928C6.748 17.296 7.196 17.48 7.74 17.48H12.204V20H7.74ZM19.8209 20.288C18.6529 20.288 17.6449 20 16.7969 19.424C15.9489 18.848 15.2929 18.08 14.8289 17.12C14.3809 16.144 14.1569 15.072 14.1569 13.904C14.1569 12.688 14.4129 11.6 14.9249 10.64C15.4529 9.664 16.1969 8.896 17.1569 8.336C18.1329 7.76 19.2929 7.472 20.6369 7.472C21.9649 7.472 23.0929 7.76 24.0209 8.336C24.9649 8.896 25.6849 9.664 26.1809 10.64C26.6929 11.6 26.9489 12.672 26.9489 13.856V20H24.1889V17.72H24.1409C23.9009 18.168 23.5889 18.592 23.2049 18.992C22.8209 19.376 22.3489 19.688 21.7889 19.928C21.2289 20.168 20.5729 20.288 19.8209 20.288ZM20.5649 17.936C21.2849 17.936 21.9089 17.76 22.4369 17.408C22.9809 17.04 23.3969 16.552 23.6849 15.944C23.9889 15.32 24.1409 14.624 24.1409 13.856C24.1409 13.088 23.9969 12.408 23.7089 11.816C23.4209 11.208 23.0129 10.728 22.4849 10.376C21.9569 10.008 21.3249 9.824 20.5889 9.824C19.8209 9.824 19.1649 10.008 18.6209 10.376C18.0769 10.728 17.6609 11.208 17.3729 11.816C17.0849 12.424 16.9409 13.112 16.9409 13.88C16.9409 14.632 17.0849 15.32 17.3729 15.944C17.6609 16.552 18.0689 17.04 18.5969 17.408C19.1409 17.76 19.7969 17.936 20.5649 17.936ZM30.6513 20V12.68C30.6513 11.736 30.8753 10.872 31.3233 10.088C31.7713 9.288 32.4193 8.656 33.2673 8.192C34.1153 7.712 35.1313 7.472 36.3153 7.472C36.8913 7.472 37.4433 7.544 37.9713 7.688C38.4993 7.832 38.9873 8.064 39.4353 8.384C39.8993 8.688 40.2913 9.072 40.6113 9.536H40.6353C40.9553 9.072 41.3393 8.688 41.7873 8.384C42.2513 8.064 42.7473 7.832 43.2753 7.688C43.8193 7.544 44.3793 7.472 44.9553 7.472C46.1553 7.472 47.1713 7.712 48.0033 8.192C48.8513 8.656 49.4993 9.288 49.9473 10.088C50.3953 10.872 50.6193 11.736 50.6193 12.68V20H47.8833V12.68C47.8833 12.152 47.7473 11.672 47.4753 11.24C47.2193 10.808 46.8753 10.464 46.4433 10.208C46.0113 9.952 45.5153 9.824 44.9553 9.824C44.4113 9.824 43.9153 9.952 43.4673 10.208C43.0193 10.464 42.6593 10.808 42.3873 11.24C42.1313 11.672 42.0033 12.152 42.0033 12.68V20H39.2673V12.68C39.2673 12.152 39.1313 11.672 38.8593 11.24C38.5873 10.808 38.2273 10.464 37.7793 10.208C37.3473 9.952 36.8593 9.824 36.3153 9.824C35.7713 9.824 35.2753 9.952 34.8273 10.208C34.3953 10.464 34.0433 10.808 33.7713 11.24C33.5153 11.672 33.3873 12.152 33.3873 12.68V20H30.6513ZM59.2928 20.288C58.1248 20.288 57.1168 20 56.2688 19.424C55.4208 18.848 54.7648 18.08 54.3008 17.12C53.8528 16.144 53.6288 15.072 53.6288 13.904C53.6288 12.688 53.8848 11.6 54.3968 10.64C54.9248 9.664 55.6688 8.896 56.6288 8.336C57.6048 7.76 58.7648 7.472 60.1088 7.472C61.4368 7.472 62.5648 7.76 63.4928 8.336C64.4368 8.896 65.1568 9.664 65.6528 10.64C66.1648 11.6 66.4208 12.672 66.4208 13.856V20H63.6608V17.72H63.6128C63.3728 18.168 63.0608 18.592 62.6768 18.992C62.2928 19.376 61.8208 19.688 61.2608 19.928C60.7008 20.168 60.0448 20.288 59.2928 20.288ZM60.0368 17.936C60.7568 17.936 61.3808 17.76 61.9088 17.408C62.4528 17.04 62.8688 16.552 63.1568 15.944C63.4608 15.32 63.6128 14.624 63.6128 13.856C63.6128 13.088 63.4688 12.408 63.1808 11.816C62.8928 11.208 62.4848 10.728 61.9568 10.376C61.4288 10.008 60.7968 9.824 60.0608 9.824C59.2928 9.824 58.6368 10.008 58.0928 10.376C57.5488 10.728 57.1328 11.208 56.8448 11.816C56.5568 12.424 56.4128 13.112 56.4128 13.88C56.4128 14.632 56.5568 15.32 56.8448 15.944C57.1328 16.552 57.5408 17.04 58.0688 17.408C58.6128 17.76 59.2688 17.936 60.0368 17.936ZM70.0272 20V11.24C70.0272 10.152 70.3312 9.304 70.9392 8.696C71.5632 8.072 72.4192 7.76 73.5072 7.76H76.4592V10.112H74.0112C73.6272 10.112 73.3232 10.224 73.0992 10.448C72.8912 10.672 72.7872 10.976 72.7872 11.36V20H70.0272ZM79.9732 20.264C79.4452 20.264 78.9892 20.08 78.6052 19.712C78.2372 19.328 78.0532 18.872 78.0532 18.344C78.0532 17.832 78.2372 17.392 78.6052 17.024C78.9892 16.64 79.4452 16.448 79.9732 16.448C80.4852 16.448 80.9252 16.64 81.2932 17.024C81.6772 17.392 81.8692 17.832 81.8692 18.344C81.8692 18.696 81.7812 19.024 81.6052 19.328C81.4452 19.616 81.2212 19.84 80.9332 20C80.6452 20.176 80.3252 20.264 79.9732 20.264Z" fill="white"/>
<path d="M0.616477 34V28.9091H2.33665C2.73438 28.9091 3.06084 28.977 3.31605 29.1129C3.57126 29.2472 3.76018 29.4319 3.88281 29.6673C4.00545 29.9026 4.06676 30.1702 4.06676 30.4702C4.06676 30.7701 4.00545 31.0361 3.88281 31.2681C3.76018 31.5001 3.57209 31.6824 3.31854 31.815C3.06499 31.9459 2.741 32.0114 2.34659 32.0114H0.954545V31.4545H2.3267C2.59848 31.4545 2.81723 31.4148 2.98295 31.3352C3.15033 31.2557 3.27131 31.143 3.34588 30.9972C3.42211 30.8497 3.46023 30.674 3.46023 30.4702C3.46023 30.2663 3.42211 30.0882 3.34588 29.9357C3.26965 29.7833 3.14785 29.6656 2.98047 29.5827C2.81309 29.4982 2.59186 29.456 2.31676 29.456H1.23295V34H0.616477ZM3.01278 31.7131L4.26562 34H3.54972L2.31676 31.7131H3.01278ZM6.77544 30.1023C7.14334 30.1023 7.45987 30.1843 7.72502 30.3484C7.99183 30.5108 8.19649 30.7395 8.33901 31.0344C8.48319 31.3278 8.55527 31.67 8.55527 32.0611C8.55527 32.4522 8.48319 32.7977 8.33901 33.0977C8.19649 33.396 7.99597 33.6296 7.73745 33.7987C7.48058 33.966 7.1798 34.0497 6.8351 34.0497C6.63624 34.0497 6.43986 34.0166 6.24597 33.9503C6.05208 33.884 5.87559 33.7771 5.7165 33.6296C5.5574 33.4805 5.43063 33.2841 5.33617 33.0405C5.24171 32.7952 5.19448 32.4953 5.19448 32.1406V31.892H8.13766V32.3991H5.79107C5.79107 32.6146 5.83333 32.8068 5.91784 32.9759C6.00402 33.1449 6.12499 33.2783 6.28077 33.3761C6.4382 33.4738 6.62298 33.5227 6.8351 33.5227C7.07043 33.5227 7.2726 33.4656 7.44164 33.3512C7.61067 33.2352 7.74076 33.0852 7.83191 32.9013C7.92305 32.7157 7.96863 32.5185 7.96863 32.3097V31.9716C7.96863 31.6816 7.91808 31.4371 7.81699 31.2383C7.71756 31.0394 7.57836 30.8886 7.39938 30.7859C7.2204 30.6815 7.01242 30.6293 6.77544 30.6293C6.62298 30.6293 6.48378 30.6516 6.35783 30.6964C6.23188 30.7395 6.12334 30.8058 6.03219 30.8952C5.94105 30.9831 5.87061 31.0933 5.8209 31.2259L5.25414 31.0668C5.3138 30.8745 5.41406 30.7063 5.55492 30.5621C5.69578 30.4163 5.86979 30.3036 6.07694 30.2241C6.28409 30.1429 6.51692 30.1023 6.77544 30.1023ZM12.4528 35.4318V33.4134H12.4031C12.36 33.483 12.2987 33.5708 12.2191 33.6768C12.1396 33.7812 12.0261 33.8749 11.8786 33.9577C11.7311 34.0389 11.5347 34.0795 11.2894 34.0795C10.9713 34.0795 10.6904 33.9992 10.4468 33.8384C10.2031 33.676 10.0126 33.4473 9.87502 33.1523C9.73747 32.8557 9.6687 32.5052 9.6687 32.1009C9.6687 31.6998 9.73747 31.3518 9.87502 31.0568C10.0126 30.7618 10.204 30.534 10.4492 30.3732C10.6945 30.2125 10.9779 30.1321 11.2994 30.1321C11.548 30.1321 11.7443 30.1735 11.8885 30.2564C12.0343 30.3376 12.1454 30.4304 12.2216 30.5348C12.2995 30.6375 12.36 30.7221 12.4031 30.7884H12.4727V30.1818H13.0394V35.4318H12.4528ZM11.369 33.5526C11.6043 33.5526 11.8032 33.4912 11.9656 33.3686C12.128 33.2443 12.2514 33.0728 12.336 32.854C12.4205 32.6336 12.4627 32.3793 12.4627 32.0909C12.4627 31.8059 12.4213 31.5565 12.3384 31.3427C12.2556 31.1272 12.1329 30.9599 11.9705 30.8406C11.8081 30.7196 11.6076 30.6591 11.369 30.6591C11.1204 30.6591 10.9133 30.7229 10.7475 30.8505C10.5835 30.9764 10.46 31.148 10.3771 31.3651C10.2959 31.5805 10.2553 31.8224 10.2553 32.0909C10.2553 32.3627 10.2968 32.6096 10.3796 32.8317C10.4642 33.0521 10.5884 33.2277 10.7525 33.3587C10.9182 33.4879 11.1237 33.5526 11.369 33.5526ZM15.9153 30.1023C16.2832 30.1023 16.5997 30.1843 16.8649 30.3484C17.1317 30.5108 17.3363 30.7395 17.4789 31.0344C17.623 31.3278 17.6951 31.67 17.6951 32.0611C17.6951 32.4522 17.623 32.7977 17.4789 33.0977C17.3363 33.396 17.1358 33.6296 16.8773 33.7987C16.6204 33.966 16.3196 34.0497 15.9749 34.0497C15.7761 34.0497 15.5797 34.0166 15.3858 33.9503C15.1919 33.884 15.0154 33.7771 14.8563 33.6296C14.6972 33.4805 14.5705 33.2841 14.476 33.0405C14.3816 32.7952 14.3343 32.4953 14.3343 32.1406V31.892H17.2775V32.3991H14.9309C14.9309 32.6146 14.9732 32.8068 15.0577 32.9759C15.1439 33.1449 15.2648 33.2783 15.4206 33.3761C15.578 33.4738 15.7628 33.5227 15.9749 33.5227C16.2103 33.5227 16.4124 33.4656 16.5815 33.3512C16.7505 33.2352 16.8806 33.0852 16.9718 32.9013C17.0629 32.7157 17.1085 32.5185 17.1085 32.3097V31.9716C17.1085 31.6816 17.0579 31.4371 16.9568 31.2383C16.8574 31.0394 16.7182 30.8886 16.5392 30.7859C16.3602 30.6815 16.1523 30.6293 15.9153 30.6293C15.7628 30.6293 15.6236 30.6516 15.4977 30.6964C15.3717 30.7395 15.2632 30.8058 15.172 30.8952C15.0809 30.9831 15.0105 31.0933 14.9607 31.2259L14.394 31.0668C14.4536 30.8745 14.5539 30.7063 14.6948 30.5621C14.8356 30.4163 15.0096 30.3036 15.2168 30.2241C15.4239 30.1429 15.6568 30.1023 15.9153 30.1023ZM18.9875 34V30.1818H19.5543V30.7784H19.604C19.6835 30.5746 19.812 30.4163 19.9893 30.3036C20.1666 30.1893 20.3796 30.1321 20.6281 30.1321C20.88 30.1321 21.0897 30.1893 21.257 30.3036C21.4261 30.4163 21.5578 30.5746 21.6523 30.7784H21.6921C21.7898 30.5812 21.9365 30.4246 22.132 30.3086C22.3276 30.1909 22.5621 30.1321 22.8355 30.1321C23.1769 30.1321 23.4561 30.239 23.6732 30.4528C23.8903 30.6649 23.9989 30.9955 23.9989 31.4446V34H23.4122V31.4446C23.4122 31.1629 23.3352 30.9615 23.1811 30.8406C23.0269 30.7196 22.8455 30.6591 22.6367 30.6591C22.3682 30.6591 22.1602 30.7403 22.0127 30.9027C21.8652 31.0634 21.7915 31.2673 21.7915 31.5142V34H21.1949V31.3849C21.1949 31.1679 21.1245 30.993 20.9836 30.8604C20.8428 30.7262 20.6613 30.6591 20.4392 30.6591C20.2868 30.6591 20.1442 30.6997 20.0117 30.7809C19.8807 30.8621 19.7747 30.9748 19.6935 31.119C19.6139 31.2615 19.5742 31.4264 19.5742 31.6136V34H18.9875ZM28.176 31.0369L27.6491 31.1861C27.6159 31.0982 27.567 31.0129 27.5024 30.93C27.4394 30.8455 27.3532 30.7759 27.2439 30.7212C27.1345 30.6665 26.9945 30.6392 26.8238 30.6392C26.5901 30.6392 26.3954 30.6931 26.2396 30.8008C26.0855 30.9068 26.0084 31.0419 26.0084 31.206C26.0084 31.3518 26.0615 31.467 26.1675 31.5515C26.2736 31.636 26.4393 31.7064 26.6647 31.7628L27.2314 31.902C27.5728 31.9848 27.8272 32.1116 27.9946 32.2823C28.162 32.4513 28.2456 32.6693 28.2456 32.9361C28.2456 33.1548 28.1827 33.3504 28.0567 33.5227C27.9324 33.6951 27.7584 33.831 27.5347 33.9304C27.311 34.0298 27.0508 34.0795 26.7542 34.0795C26.3647 34.0795 26.0424 33.995 25.7872 33.826C25.532 33.657 25.3704 33.41 25.3025 33.0852L25.8593 32.946C25.9123 33.1515 26.0126 33.3056 26.1601 33.4084C26.3092 33.5111 26.5039 33.5625 26.7442 33.5625C27.0177 33.5625 27.2348 33.5045 27.3955 33.3885C27.5579 33.2708 27.6391 33.13 27.6391 32.9659C27.6391 32.8333 27.5927 32.7223 27.4999 32.6328C27.4071 32.5417 27.2646 32.4737 27.0724 32.429L26.436 32.2798C26.0863 32.197 25.8295 32.0685 25.6654 31.8945C25.503 31.7189 25.4218 31.4993 25.4218 31.2358C25.4218 31.0204 25.4823 30.8298 25.6032 30.6641C25.7259 30.4983 25.8924 30.3683 26.1029 30.2738C26.315 30.1793 26.5553 30.1321 26.8238 30.1321C27.2016 30.1321 27.4983 30.215 27.7137 30.3807C27.9308 30.5464 28.0849 30.7652 28.176 31.0369ZM30.6523 34.0895C30.4104 34.0895 30.1908 34.0439 29.9936 33.9528C29.7964 33.86 29.6398 33.7266 29.5238 33.5526C29.4078 33.3769 29.3498 33.1648 29.3498 32.9162C29.3498 32.6974 29.3928 32.5201 29.479 32.3842C29.5652 32.2467 29.6804 32.139 29.8245 32.0611C29.9687 31.9832 30.1278 31.9252 30.3018 31.8871C30.4775 31.8473 30.654 31.8158 30.8313 31.7926C31.0633 31.7628 31.2514 31.7404 31.3956 31.7255C31.5414 31.7089 31.6475 31.6816 31.7137 31.6435C31.7817 31.6054 31.8157 31.5391 31.8157 31.4446V31.4247C31.8157 31.1795 31.7485 30.9889 31.6143 30.853C31.4817 30.7171 31.2804 30.6491 31.0103 30.6491C30.7302 30.6491 30.5106 30.7105 30.3515 30.8331C30.1924 30.9557 30.0806 31.0866 30.0159 31.2259L29.4591 31.027C29.5586 30.795 29.6911 30.6143 29.8569 30.4851C30.0242 30.3542 30.2065 30.263 30.4037 30.2116C30.6026 30.1586 30.7981 30.1321 30.9904 30.1321C31.113 30.1321 31.2539 30.147 31.413 30.1768C31.5737 30.205 31.7287 30.2638 31.8778 30.3533C32.0286 30.4428 32.1537 30.5779 32.2532 30.7585C32.3526 30.9392 32.4023 31.1811 32.4023 31.4844V34H31.8157V33.483H31.7858C31.7461 33.5658 31.6798 33.6545 31.587 33.7489C31.4942 33.8434 31.3707 33.9238 31.2166 33.9901C31.0625 34.0563 30.8744 34.0895 30.6523 34.0895ZM30.7418 33.5625C30.9738 33.5625 31.1694 33.5169 31.3284 33.4258C31.4892 33.3346 31.6102 33.217 31.6914 33.0728C31.7742 32.9286 31.8157 32.777 31.8157 32.6179V32.081C31.7908 32.1108 31.7361 32.1381 31.6516 32.163C31.5687 32.1862 31.4726 32.2069 31.3632 32.2251C31.2555 32.2417 31.1503 32.2566 31.0475 32.2699C30.9465 32.2815 30.8644 32.2914 30.8015 32.2997C30.649 32.3196 30.5065 32.3519 30.3739 32.3967C30.243 32.4397 30.1369 32.5052 30.0557 32.593C29.9762 32.6792 29.9364 32.7969 29.9364 32.946C29.9364 33.1499 30.0118 33.304 30.1626 33.4084C30.3151 33.5111 30.5081 33.5625 30.7418 33.5625ZM34.4597 28.9091V34H33.8731V28.9091H34.4597ZM39.7049 30.1023C40.0728 30.1023 40.3894 30.1843 40.6545 30.3484C40.9213 30.5108 41.126 30.7395 41.2685 31.0344C41.4127 31.3278 41.4848 31.67 41.4848 32.0611C41.4848 32.4522 41.4127 32.7977 41.2685 33.0977C41.126 33.396 40.9255 33.6296 40.6669 33.7987C40.4101 33.966 40.1093 34.0497 39.7646 34.0497C39.5657 34.0497 39.3694 34.0166 39.1755 33.9503C38.9816 33.884 38.8051 33.7771 38.646 33.6296C38.4869 33.4805 38.3601 33.2841 38.2657 33.0405C38.1712 32.7952 38.124 32.4953 38.124 32.1406V31.892H41.0672V32.3991H38.7206C38.7206 32.6146 38.7628 32.8068 38.8473 32.9759C38.9335 33.1449 39.0545 33.2783 39.2103 33.3761C39.3677 33.4738 39.5525 33.5227 39.7646 33.5227C39.9999 33.5227 40.2021 33.4656 40.3711 33.3512C40.5402 33.2352 40.6703 33.0852 40.7614 32.9013C40.8525 32.7157 40.8981 32.5185 40.8981 32.3097V31.9716C40.8981 31.6816 40.8476 31.4371 40.7465 31.2383C40.6471 31.0394 40.5078 30.8886 40.3289 30.7859C40.1499 30.6815 39.9419 30.6293 39.7049 30.6293C39.5525 30.6293 39.4133 30.6516 39.2873 30.6964C39.1614 30.7395 39.0528 30.8058 38.9617 30.8952C38.8705 30.9831 38.8001 31.0933 38.7504 31.2259L38.1836 31.0668C38.2433 30.8745 38.3435 30.7063 38.4844 30.5621C38.6253 30.4163 38.7993 30.3036 39.0064 30.2241C39.2136 30.1429 39.4464 30.1023 39.7049 30.1023ZM42.7772 34V30.1818H43.3439V30.7784H43.3936C43.4732 30.5746 43.6016 30.4163 43.7789 30.3036C43.9563 30.1893 44.1692 30.1321 44.4178 30.1321C44.6697 30.1321 44.8793 30.1893 45.0467 30.3036C45.2157 30.4163 45.3475 30.5746 45.4419 30.7784H45.4817C45.5795 30.5812 45.7261 30.4246 45.9217 30.3086C46.1172 30.1909 46.3517 30.1321 46.6252 30.1321C46.9666 30.1321 47.2458 30.239 47.4629 30.4528C47.68 30.6649 47.7885 30.9955 47.7885 31.4446V34H47.2019V31.4446C47.2019 31.1629 47.1248 30.9615 46.9707 30.8406C46.8166 30.7196 46.6351 30.6591 46.4263 30.6591C46.1578 30.6591 45.9499 30.7403 45.8024 30.9027C45.6549 31.0634 45.5811 31.2673 45.5811 31.5142V34H44.9846V31.3849C44.9846 31.1679 44.9141 30.993 44.7733 30.8604C44.6324 30.7262 44.4509 30.6591 44.2289 30.6591C44.0764 30.6591 43.9339 30.6997 43.8013 30.7809C43.6704 30.8621 43.5643 30.9748 43.4831 31.119C43.4036 31.2615 43.3638 31.4264 43.3638 31.6136V34H42.7772ZM50.6631 30.1023C51.031 30.1023 51.3476 30.1843 51.6127 30.3484C51.8795 30.5108 52.0842 30.7395 52.2267 31.0344C52.3709 31.3278 52.443 31.67 52.443 32.0611C52.443 32.4522 52.3709 32.7977 52.2267 33.0977C52.0842 33.396 51.8837 33.6296 51.6251 33.7987C51.3683 33.966 51.0675 34.0497 50.7228 34.0497C50.5239 34.0497 50.3276 34.0166 50.1337 33.9503C49.9398 33.884 49.7633 33.7771 49.6042 33.6296C49.4451 33.4805 49.3183 33.2841 49.2239 33.0405C49.1294 32.7952 49.0822 32.4953 49.0822 32.1406V31.892H52.0254V32.3991H49.6788C49.6788 32.6146 49.721 32.8068 49.8055 32.9759C49.8917 33.1449 50.0127 33.2783 50.1685 33.3761C50.3259 33.4738 50.5107 33.5227 50.7228 33.5227C50.9581 33.5227 51.1603 33.4656 51.3293 33.3512C51.4984 33.2352 51.6285 33.0852 51.7196 32.9013C51.8107 32.7157 51.8563 32.5185 51.8563 32.3097V31.9716C51.8563 31.6816 51.8058 31.4371 51.7047 31.2383C51.6053 31.0394 51.4661 30.8886 51.2871 30.7859C51.1081 30.6815 50.9001 30.6293 50.6631 30.6293C50.5107 30.6293 50.3715 30.6516 50.2455 30.6964C50.1196 30.7395 50.011 30.8058 49.9199 30.8952C49.8287 30.9831 49.7583 31.0933 49.7086 31.2259L49.1418 31.0668C49.2015 30.8745 49.3018 30.7063 49.4426 30.5621C49.5835 30.4163 49.7575 30.3036 49.9646 30.2241C50.1718 30.1429 50.4046 30.1023 50.6631 30.1023ZM54.2822 32.608L54.2723 31.8821H54.3916L56.0621 30.1818H56.7879L55.0081 31.9815H54.9584L54.2822 32.608ZM53.7354 34V28.9091H54.322V34H53.7354ZM56.1615 34L54.67 32.1108L55.0876 31.7031L56.9072 34H56.1615ZM60.3913 34V28.9091H60.9779V30.7884H61.0276C61.0707 30.7221 61.1304 30.6375 61.2066 30.5348C61.2845 30.4304 61.3955 30.3376 61.5397 30.2564C61.6856 30.1735 61.8828 30.1321 62.1313 30.1321C62.4528 30.1321 62.7362 30.2125 62.9815 30.3732C63.2267 30.534 63.4182 30.7618 63.5557 31.0568C63.6932 31.3518 63.762 31.6998 63.762 32.1009C63.762 32.5052 63.6932 32.8557 63.5557 33.1523C63.4182 33.4473 63.2276 33.676 62.984 33.8384C62.7404 33.9992 62.4595 34.0795 62.1413 34.0795C61.896 34.0795 61.6996 34.0389 61.5521 33.9577C61.4047 33.8749 61.2911 33.7812 61.2116 33.6768C61.132 33.5708 61.0707 33.483 61.0276 33.4134H60.958V34H60.3913ZM60.968 32.0909C60.968 32.3793 61.0102 32.6336 61.0948 32.854C61.1793 33.0728 61.3027 33.2443 61.4651 33.3686C61.6275 33.4912 61.8264 33.5526 62.0617 33.5526C62.307 33.5526 62.5117 33.4879 62.6757 33.3587C62.8414 33.2277 62.9657 33.0521 63.0486 32.8317C63.1331 32.6096 63.1754 32.3627 63.1754 32.0909C63.1754 31.8224 63.1339 31.5805 63.0511 31.3651C62.9699 31.148 62.8464 30.9764 62.6807 30.8505C62.5166 30.7229 62.3103 30.6591 62.0617 30.6591C61.8231 30.6591 61.6226 30.7196 61.4602 30.8406C61.2978 30.9599 61.1751 31.1272 61.0923 31.3427C61.0094 31.5565 60.968 31.8059 60.968 32.0909ZM66.183 34.0895C65.941 34.0895 65.7214 34.0439 65.5242 33.9528C65.327 33.86 65.1704 33.7266 65.0544 33.5526C64.9384 33.3769 64.8804 33.1648 64.8804 32.9162C64.8804 32.6974 64.9235 32.5201 65.0097 32.3842C65.0959 32.2467 65.211 32.139 65.3552 32.0611C65.4994 31.9832 65.6585 31.9252 65.8325 31.8871C66.0081 31.8473 66.1846 31.8158 66.3619 31.7926C66.594 31.7628 66.782 31.7404 66.9262 31.7255C67.0721 31.7089 67.1781 31.6816 67.2444 31.6435C67.3124 31.6054 67.3463 31.5391 67.3463 31.4446V31.4247C67.3463 31.1795 67.2792 30.9889 67.145 30.853C67.0124 30.7171 66.8111 30.6491 66.5409 30.6491C66.2609 30.6491 66.0413 30.7105 65.8822 30.8331C65.7231 30.9557 65.6112 31.0866 65.5466 31.2259L64.9898 31.027C65.0892 30.795 65.2218 30.6143 65.3875 30.4851C65.5549 30.3542 65.7372 30.263 65.9344 30.2116C66.1333 30.1586 66.3288 30.1321 66.521 30.1321C66.6437 30.1321 66.7845 30.147 66.9436 30.1768C67.1044 30.205 67.2593 30.2638 67.4085 30.3533C67.5593 30.4428 67.6844 30.5779 67.7838 30.7585C67.8833 30.9392 67.933 31.1811 67.933 31.4844V34H67.3463V33.483H67.3165C67.2767 33.5658 67.2104 33.6545 67.1176 33.7489C67.0248 33.8434 66.9014 33.9238 66.7472 33.9901C66.5931 34.0563 66.405 34.0895 66.183 34.0895ZM66.2725 33.5625C66.5045 33.5625 66.7 33.5169 66.8591 33.4258C67.0199 33.3346 67.1408 33.217 67.222 33.0728C67.3049 32.9286 67.3463 32.777 67.3463 32.6179V32.081C67.3215 32.1108 67.2668 32.1381 67.1823 32.163C67.0994 32.1862 67.0033 32.2069 66.8939 32.2251C66.7862 32.2417 66.681 32.2566 66.5782 32.2699C66.4771 32.2815 66.3951 32.2914 66.3321 32.2997C66.1797 32.3196 66.0371 32.3519 65.9046 32.3967C65.7736 32.4397 65.6676 32.5052 65.5864 32.593C65.5068 32.6792 65.4671 32.7969 65.4671 32.946C65.4671 33.1499 65.5425 33.304 65.6933 33.4084C65.8457 33.5111 66.0388 33.5625 66.2725 33.5625ZM69.2944 34V33.5526L71.462 30.7685V30.7287H69.364V30.1818H72.2177V30.6491L70.1097 33.4134V33.4531H72.2873V34H69.2944ZM74.7144 34.0895C74.4725 34.0895 74.2529 34.0439 74.0557 33.9528C73.8585 33.86 73.7019 33.7266 73.5859 33.5526C73.4699 33.3769 73.4119 33.1648 73.4119 32.9162C73.4119 32.6974 73.455 32.5201 73.5411 32.3842C73.6273 32.2467 73.7425 32.139 73.8867 32.0611C74.0308 31.9832 74.1899 31.9252 74.3639 31.8871C74.5396 31.8473 74.7161 31.8158 74.8934 31.7926C75.1254 31.7628 75.3135 31.7404 75.4577 31.7255C75.6035 31.7089 75.7096 31.6816 75.7759 31.6435C75.8438 31.6054 75.8778 31.5391 75.8778 31.4446V31.4247C75.8778 31.1795 75.8107 30.9889 75.6764 30.853C75.5438 30.7171 75.3425 30.6491 75.0724 30.6491C74.7923 30.6491 74.5727 30.7105 74.4136 30.8331C74.2545 30.9557 74.1427 31.0866 74.0781 31.2259L73.5212 31.027C73.6207 30.795 73.7532 30.6143 73.919 30.4851C74.0863 30.3542 74.2686 30.263 74.4658 30.2116C74.6647 30.1586 74.8603 30.1321 75.0525 30.1321C75.1751 30.1321 75.316 30.147 75.4751 30.1768C75.6358 30.205 75.7908 30.2638 75.9399 30.3533C76.0907 30.4428 76.2158 30.5779 76.3153 30.7585C76.4147 30.9392 76.4644 31.1811 76.4644 31.4844V34H75.8778V33.483H75.8479C75.8082 33.5658 75.7419 33.6545 75.6491 33.7489C75.5563 33.8434 75.4328 33.9238 75.2787 33.9901C75.1246 34.0563 74.9365 34.0895 74.7144 34.0895ZM74.8039 33.5625C75.0359 33.5625 75.2315 33.5169 75.3906 33.4258C75.5513 33.3346 75.6723 33.217 75.7535 33.0728C75.8363 32.9286 75.8778 32.777 75.8778 32.6179V32.081C75.8529 32.1108 75.7982 32.1381 75.7137 32.163C75.6309 32.1862 75.5347 32.2069 75.4254 32.2251C75.3176 32.2417 75.2124 32.2566 75.1097 32.2699C75.0086 32.2815 74.9265 32.2914 74.8636 32.2997C74.7111 32.3196 74.5686 32.3519 74.436 32.3967C74.3051 32.4397 74.199 32.5052 74.1178 32.593C74.0383 32.6792 73.9985 32.7969 73.9985 32.946C73.9985 33.1499 74.0739 33.304 74.2247 33.4084C74.3772 33.5111 74.5702 33.5625 74.8039 33.5625ZM77.9352 34V30.1818H78.5019V30.7585H78.5417C78.6113 30.5696 78.7373 30.4163 78.9195 30.2987C79.1018 30.181 79.3073 30.1222 79.536 30.1222C79.5791 30.1222 79.633 30.123 79.6976 30.1246C79.7622 30.1263 79.8111 30.1288 79.8443 30.1321V30.7287C79.8244 30.7237 79.7788 30.7163 79.7075 30.7063C79.6379 30.6947 79.5642 30.6889 79.4863 30.6889C79.3007 30.6889 79.135 30.7279 78.9891 30.8058C78.845 30.882 78.7306 30.988 78.6461 31.1239C78.5632 31.2582 78.5218 31.4115 78.5218 31.5838V34H77.9352ZM80.9397 34V30.1818H81.5263V34H80.9397ZM83.4284 34.0398C83.3057 34.0398 83.2005 33.9959 83.1127 33.908C83.0248 33.8202 82.9809 33.715 82.9809 33.5923C82.9809 33.4697 83.0248 33.3645 83.1127 33.2766C83.2005 33.1888 83.3057 33.1449 83.4284 33.1449C83.551 33.1449 83.6562 33.1888 83.7441 33.2766C83.8319 33.3645 83.8758 33.4697 83.8758 33.5923C83.8758 33.6735 83.8551 33.7481 83.8137 33.8161C83.7739 33.884 83.72 33.9387 83.6521 33.9801C83.5858 34.0199 83.5112 34.0398 83.4284 34.0398Z" fill="white"/>
</svg>
