<svg width="100" height="100" viewBox="0 0 100 100" fill="none" xmlns="http://www.w3.org/2000/svg">
<rect width="100" height="100" fill="white"/>
<path d="M15.456 58C14.416 58 13.504 57.768 12.72 57.304C11.936 56.84 11.328 56.224 10.896 55.456C10.464 54.688 10.248 53.84 10.248 52.912V41.2H14.28V53.2C14.28 53.584 14.416 53.92 14.688 54.208C14.96 54.496 15.296 54.64 15.696 54.64H20.136V58H15.456ZM27.3376 58.288C26.2496 58.288 25.2896 58.008 24.4576 57.448C23.6256 56.888 22.9776 56.136 22.5136 55.192C22.0496 54.232 21.8176 53.152 21.8176 51.952C21.8176 50.704 22.0896 49.592 22.6336 48.616C23.1776 47.624 23.9456 46.84 24.9376 46.264C25.9456 45.688 27.1296 45.4 28.4896 45.4C29.8656 45.4 31.0336 45.688 31.9936 46.264C32.9696 46.824 33.7136 47.6 34.2256 48.592C34.7536 49.568 35.0176 50.664 35.0176 51.88V58H31.3696V56.032H31.2736C31.0496 56.464 30.7616 56.856 30.4096 57.208C30.0576 57.544 29.6256 57.808 29.1136 58C28.6176 58.192 28.0256 58.288 27.3376 58.288ZM28.4416 55.072C29.0016 55.072 29.4896 54.936 29.9056 54.664C30.3376 54.376 30.6656 53.984 30.8896 53.488C31.1136 52.992 31.2256 52.44 31.2256 51.832C31.2256 51.24 31.1136 50.704 30.8896 50.224C30.6656 49.744 30.3376 49.368 29.9056 49.096C29.4896 48.808 29.0016 48.664 28.4416 48.664C27.8656 48.664 27.3616 48.808 26.9296 49.096C26.4976 49.368 26.1696 49.744 25.9456 50.224C25.7216 50.704 25.6096 51.24 25.6096 51.832C25.6096 52.44 25.7216 52.992 25.9456 53.488C26.1696 53.984 26.4976 54.376 26.9296 54.664C27.3616 54.936 27.8656 55.072 28.4416 55.072ZM38.1686 58V50.728C38.1686 49.72 38.4006 48.816 38.8646 48.016C39.3446 47.2 40.0246 46.56 40.9046 46.096C41.7846 45.632 42.8326 45.4 44.0486 45.4C44.6566 45.4 45.2166 45.472 45.7286 45.616C46.2406 45.744 46.7046 45.928 47.1206 46.168C47.5526 46.392 47.9206 46.664 48.2246 46.984H48.2726C48.5926 46.664 48.9606 46.392 49.3766 46.168C49.8086 45.928 50.2806 45.744 50.7926 45.616C51.3206 45.472 51.8886 45.4 52.4966 45.4C53.7126 45.4 54.7606 45.632 55.6406 46.096C56.5206 46.56 57.2006 47.2 57.6806 48.016C58.1606 48.816 58.4006 49.72 58.4006 50.728V58H54.6566V50.848C54.6566 50.448 54.5526 50.088 54.3446 49.768C54.1526 49.432 53.8886 49.16 53.5526 48.952C53.2166 48.744 52.8326 48.64 52.4006 48.64C51.9686 48.64 51.5766 48.744 51.2246 48.952C50.8886 49.16 50.6246 49.432 50.4326 49.768C50.2406 50.088 50.1446 50.448 50.1446 50.848V58H46.4246V50.848C46.4246 50.448 46.3206 50.088 46.1126 49.768C45.9206 49.432 45.6486 49.16 45.2966 48.952C44.9606 48.744 44.5766 48.64 44.1446 48.64C43.7126 48.64 43.3206 48.744 42.9686 48.952C42.6326 49.16 42.3686 49.432 42.1766 49.768C41.9846 50.088 41.8886 50.448 41.8886 50.848V58H38.1686ZM66.5048 58.288C65.4168 58.288 64.4568 58.008 63.6248 57.448C62.7928 56.888 62.1448 56.136 61.6808 55.192C61.2168 54.232 60.9848 53.152 60.9848 51.952C60.9848 50.704 61.2568 49.592 61.8008 48.616C62.3448 47.624 63.1128 46.84 64.1048 46.264C65.1128 45.688 66.2968 45.4 67.6568 45.4C69.0328 45.4 70.2008 45.688 71.1608 46.264C72.1368 46.824 72.8808 47.6 73.3928 48.592C73.9208 49.568 74.1848 50.664 74.1848 51.88V58H70.5368V56.032H70.4408C70.2168 56.464 69.9288 56.856 69.5768 57.208C69.2248 57.544 68.7928 57.808 68.2808 58C67.7848 58.192 67.1928 58.288 66.5048 58.288ZM67.6088 55.072C68.1688 55.072 68.6568 54.936 69.0728 54.664C69.5048 54.376 69.8328 53.984 70.0568 53.488C70.2808 52.992 70.3928 52.44 70.3928 51.832C70.3928 51.24 70.2808 50.704 70.0568 50.224C69.8328 49.744 69.5048 49.368 69.0728 49.096C68.6568 48.808 68.1688 48.664 67.6088 48.664C67.0328 48.664 66.5288 48.808 66.0968 49.096C65.6648 49.368 65.3368 49.744 65.1128 50.224C64.8888 50.704 64.7768 51.24 64.7768 51.832C64.7768 52.44 64.8888 52.992 65.1128 53.488C65.3368 53.984 65.6648 54.376 66.0968 54.664C66.5288 54.936 67.0328 55.072 67.6088 55.072ZM77.2397 58V49.312C77.2397 48.192 77.5597 47.312 78.1997 46.672C78.8397 46.032 79.7277 45.712 80.8637 45.712H84.4397V48.736H81.7757C81.5517 48.736 81.3597 48.816 81.1997 48.976C81.0397 49.12 80.9597 49.312 80.9597 49.552V58H77.2397ZM88.3254 58.288C87.6854 58.288 87.1334 58.064 86.6694 57.616C86.2214 57.152 85.9974 56.608 85.9974 55.984C85.9974 55.344 86.2214 54.8 86.6694 54.352C87.1334 53.888 87.6854 53.656 88.3254 53.656C88.9494 53.656 89.4854 53.888 89.9334 54.352C90.3974 54.8 90.6294 55.344 90.6294 55.984C90.6294 56.4 90.5254 56.784 90.3174 57.136C90.1094 57.488 89.8294 57.768 89.4774 57.976C89.1414 58.184 88.7574 58.288 88.3254 58.288Z" fill="url(#paint0_linear_1_7)"/>
<defs>
<linearGradient id="paint0_linear_1_7" x1="50.5" y1="38" x2="50.5" y2="62" gradientUnits="userSpaceOnUse">
<stop stop-color="#6200EE"/>
<stop offset="1" stop-color="#9169CB"/>
</linearGradient>
</defs>
</svg>
